<svg xmlns="http://www.w3.org/2000/svg" xmlns:xlink="http://www.w3.org/1999/xlink" width="40" zoomAndPan="magnify" viewBox="0 0 30 30.000001" height="40" preserveAspectRatio="xMidYMid meet" version="1.0"><defs><clipPath id="4e12071709"><path d="M 1.105469 0.628906 L 29 0.628906 L 29 28.210938 L 1.105469 28.210938 Z M 1.105469 0.628906 " clip-rule="nonzero"/></clipPath></defs><g clip-path="url(#4e12071709)"><path fill="#decffd" d="M 28.671875 11.96875 C 28.554688 11.328125 27.914062 10.886719 27.269531 11.003906 C 26.625 11.121094 26.191406 11.765625 26.304688 12.40625 C 26.421875 13.078125 26.511719 13.78125 26.511719 14.480469 C 26.511719 20.824219 21.367188 25.96875 15.023438 25.96875 C 8.683594 25.96875 3.539062 20.851562 3.539062 14.511719 C 3.539062 8.167969 8.683594 3.027344 15.023438 3.027344 C 16.574219 3.027344 18.09375 3.320312 19.496094 3.933594 C 20.109375 4.195312 20.808594 3.902344 21.074219 3.289062 C 21.335938 2.675781 21.042969 1.976562 20.433594 1.710938 C 18.707031 1.007812 16.894531 0.628906 15.023438 0.628906 C 7.367188 0.628906 1.144531 6.851562 1.144531 14.511719 C 1.144531 22.167969 7.367188 28.390625 15.023438 28.390625 C 22.683594 28.390625 28.90625 22.167969 28.90625 14.511719 C 28.90625 13.632812 28.816406 12.789062 28.671875 11.96875 " fill-opacity="1" fill-rule="nonzero"/></g><path fill="#decffd" d="M 11.78125 11.035156 C 10.347656 8.957031 6.929688 10.945312 8.390625 13.019531 C 10.144531 15.535156 11.75 18.164062 13.503906 20.675781 C 14.351562 21.875 16.078125 21.992188 16.894531 20.675781 C 20.109375 15.476562 23.441406 10.417969 27.707031 6.007812 C 29.460938 4.195312 26.683594 1.390625 24.933594 3.230469 C 21.160156 7.148438 18.035156 11.53125 15.140625 16.089844 C 14.03125 14.394531 12.949219 12.699219 11.78125 11.035156 " fill-opacity="1" fill-rule="nonzero"/></svg>